<mxfile host="app.diagrams.net" agent="Mozilla/5.0 (Windows NT 10.0; Win64; x64) AppleWebKit/537.36 (KHTML, like Gecko) Chrome/133.0.0.0 Safari/537.36 Edg/133.0.0.0" version="26.0.16">
  <diagram name="Page-1" id="pdihNeAQgmJMQmQSXDFN">
    <mxGraphModel dx="1678" dy="888" grid="1" gridSize="10" guides="1" tooltips="1" connect="1" arrows="1" fold="1" page="1" pageScale="1" pageWidth="827" pageHeight="1169" math="0" shadow="0">
      <root>
        <mxCell id="0" />
        <mxCell id="1" parent="0" />
        <mxCell id="Ed5fq_KU7zEKJbalu_ab-51" value="" style="rounded=1;whiteSpace=wrap;html=1;fillColor=#f5f5f5;dashed=1;fontColor=#333333;strokeColor=#666666;strokeWidth=2;" parent="1" vertex="1">
          <mxGeometry x="461" y="310" width="250" height="300" as="geometry" />
        </mxCell>
        <mxCell id="Ed5fq_KU7zEKJbalu_ab-49" value="" style="rounded=1;whiteSpace=wrap;html=1;fillColor=#f5f5f5;dashed=1;fontColor=#333333;strokeColor=#666666;strokeWidth=2;" parent="1" vertex="1">
          <mxGeometry x="461" y="80" width="250" height="170" as="geometry" />
        </mxCell>
        <mxCell id="Ed5fq_KU7zEKJbalu_ab-47" value="" style="rounded=1;whiteSpace=wrap;html=1;fillColor=#f5f5f5;dashed=1;fontColor=#333333;strokeColor=#666666;strokeWidth=2;" parent="1" vertex="1">
          <mxGeometry x="116" y="320" width="285" height="290" as="geometry" />
        </mxCell>
        <mxCell id="Ed5fq_KU7zEKJbalu_ab-45" value="" style="rounded=1;whiteSpace=wrap;html=1;fillColor=#f5f5f5;dashed=1;fontColor=#333333;strokeColor=#666666;strokeWidth=2;" parent="1" vertex="1">
          <mxGeometry x="121" y="80" width="280" height="170" as="geometry" />
        </mxCell>
        <mxCell id="Ed5fq_KU7zEKJbalu_ab-10" style="edgeStyle=orthogonalEdgeStyle;rounded=0;orthogonalLoop=1;jettySize=auto;html=1;exitX=0.5;exitY=1;exitDx=0;exitDy=0;entryX=0.5;entryY=0;entryDx=0;entryDy=0;strokeColor=light-dark(#000000,#EDEDED);" parent="1" source="Ed5fq_KU7zEKJbalu_ab-1" target="Ed5fq_KU7zEKJbalu_ab-2" edge="1">
          <mxGeometry relative="1" as="geometry" />
        </mxCell>
        <mxCell id="Ed5fq_KU7zEKJbalu_ab-25" style="edgeStyle=orthogonalEdgeStyle;rounded=0;orthogonalLoop=1;jettySize=auto;html=1;exitX=1;exitY=0.5;exitDx=0;exitDy=0;entryX=0;entryY=0.5;entryDx=0;entryDy=0;strokeColor=light-dark(#000000,#EDEDED);" parent="1" source="Ed5fq_KU7zEKJbalu_ab-1" target="Ed5fq_KU7zEKJbalu_ab-20" edge="1">
          <mxGeometry relative="1" as="geometry" />
        </mxCell>
        <mxCell id="Ed5fq_KU7zEKJbalu_ab-1" value="&lt;font style=&quot;font-size: 14px;&quot;&gt;Parsing ByteCodes&lt;/font&gt;" style="rounded=1;whiteSpace=wrap;html=1;perimeterSpacing=0;glass=0;shadow=0;fillColor=#d5e8d4;strokeColor=#82b366;" parent="1" vertex="1">
          <mxGeometry x="166" y="100" width="170" height="30" as="geometry" />
        </mxCell>
        <mxCell id="Ed5fq_KU7zEKJbalu_ab-11" style="edgeStyle=orthogonalEdgeStyle;rounded=0;orthogonalLoop=1;jettySize=auto;html=1;exitX=0.5;exitY=1;exitDx=0;exitDy=0;entryX=0.5;entryY=0;entryDx=0;entryDy=0;strokeColor=light-dark(#000000,#EDEDED);" parent="1" source="Ed5fq_KU7zEKJbalu_ab-2" target="Ed5fq_KU7zEKJbalu_ab-3" edge="1">
          <mxGeometry relative="1" as="geometry" />
        </mxCell>
        <mxCell id="Ed5fq_KU7zEKJbalu_ab-2" value="&lt;font style=&quot;font-size: 14px;&quot;&gt;Build Exits&lt;/font&gt;" style="rounded=1;whiteSpace=wrap;html=1;perimeterSpacing=0;glass=0;shadow=0;" parent="1" vertex="1">
          <mxGeometry x="166" y="150" width="170" height="30" as="geometry" />
        </mxCell>
        <mxCell id="Ed5fq_KU7zEKJbalu_ab-12" style="edgeStyle=orthogonalEdgeStyle;rounded=0;orthogonalLoop=1;jettySize=auto;html=1;exitX=0.5;exitY=1;exitDx=0;exitDy=0;entryX=0.5;entryY=0;entryDx=0;entryDy=0;strokeColor=light-dark(#000000,#EDEDED);" parent="1" source="Ed5fq_KU7zEKJbalu_ab-3" target="Ed5fq_KU7zEKJbalu_ab-5" edge="1">
          <mxGeometry relative="1" as="geometry" />
        </mxCell>
        <mxCell id="Ed5fq_KU7zEKJbalu_ab-3" value="&lt;font style=&quot;font-size: 14px;&quot;&gt;Dead Code Elimination&lt;/font&gt;" style="rounded=1;whiteSpace=wrap;html=1;perimeterSpacing=0;glass=0;shadow=0;" parent="1" vertex="1">
          <mxGeometry x="166" y="200" width="170" height="30" as="geometry" />
        </mxCell>
        <mxCell id="Ed5fq_KU7zEKJbalu_ab-13" style="edgeStyle=orthogonalEdgeStyle;rounded=0;orthogonalLoop=1;jettySize=auto;html=1;exitX=0.5;exitY=1;exitDx=0;exitDy=0;entryX=0.5;entryY=0;entryDx=0;entryDy=0;strokeColor=light-dark(#000000,#EDEDED);" parent="1" source="Ed5fq_KU7zEKJbalu_ab-5" target="Ed5fq_KU7zEKJbalu_ab-6" edge="1">
          <mxGeometry relative="1" as="geometry" />
        </mxCell>
        <mxCell id="Ed5fq_KU7zEKJbalu_ab-5" value="&lt;font style=&quot;font-size: 14px;&quot;&gt;Iterative Global Value Numbering&lt;/font&gt;" style="rounded=1;whiteSpace=wrap;html=1;perimeterSpacing=0;glass=0;shadow=0;" parent="1" vertex="1">
          <mxGeometry x="141" y="340" width="220" height="30" as="geometry" />
        </mxCell>
        <mxCell id="Ed5fq_KU7zEKJbalu_ab-15" style="edgeStyle=orthogonalEdgeStyle;rounded=0;orthogonalLoop=1;jettySize=auto;html=1;exitX=0.5;exitY=1;exitDx=0;exitDy=0;entryX=0.5;entryY=0;entryDx=0;entryDy=0;strokeColor=light-dark(#000000,#EDEDED);" parent="1" source="Ed5fq_KU7zEKJbalu_ab-6" target="Ed5fq_KU7zEKJbalu_ab-7" edge="1">
          <mxGeometry relative="1" as="geometry" />
        </mxCell>
        <mxCell id="Ed5fq_KU7zEKJbalu_ab-6" value="&lt;font style=&quot;font-size: 14px;&quot;&gt;Ideal Loop&lt;/font&gt;" style="rounded=1;whiteSpace=wrap;html=1;perimeterSpacing=0;glass=0;shadow=0;" parent="1" vertex="1">
          <mxGeometry x="206" y="400" width="90" height="30" as="geometry" />
        </mxCell>
        <mxCell id="Ed5fq_KU7zEKJbalu_ab-17" style="edgeStyle=orthogonalEdgeStyle;rounded=0;orthogonalLoop=1;jettySize=auto;html=1;exitX=0.5;exitY=1;exitDx=0;exitDy=0;entryX=0.5;entryY=0;entryDx=0;entryDy=0;strokeColor=light-dark(#000000,#EDEDED);" parent="1" source="Ed5fq_KU7zEKJbalu_ab-7" target="Ed5fq_KU7zEKJbalu_ab-8" edge="1">
          <mxGeometry relative="1" as="geometry" />
        </mxCell>
        <mxCell id="Ed5fq_KU7zEKJbalu_ab-7" value="&lt;span style=&quot;font-size: 14px;&quot;&gt;Conditional Constant Propagation&lt;/span&gt;" style="rounded=1;whiteSpace=wrap;html=1;perimeterSpacing=0;glass=0;shadow=0;" parent="1" vertex="1">
          <mxGeometry x="141" y="460" width="220" height="30" as="geometry" />
        </mxCell>
        <mxCell id="Ed5fq_KU7zEKJbalu_ab-38" style="edgeStyle=orthogonalEdgeStyle;rounded=0;orthogonalLoop=1;jettySize=auto;html=1;exitX=0.25;exitY=1;exitDx=0;exitDy=0;entryX=0;entryY=0.5;entryDx=0;entryDy=0;strokeColor=light-dark(#000000,#EDEDED);" parent="1" source="Ed5fq_KU7zEKJbalu_ab-8" target="Ed5fq_KU7zEKJbalu_ab-29" edge="1">
          <mxGeometry relative="1" as="geometry">
            <Array as="points">
              <mxPoint x="196" y="630" />
              <mxPoint x="419" y="630" />
              <mxPoint x="419" y="355" />
            </Array>
          </mxGeometry>
        </mxCell>
        <mxCell id="OGlMFdHKQF9ZKyUTeiHO-2" style="edgeStyle=orthogonalEdgeStyle;rounded=0;orthogonalLoop=1;jettySize=auto;html=1;exitX=0.5;exitY=1;exitDx=0;exitDy=0;entryX=0.5;entryY=0;entryDx=0;entryDy=0;" edge="1" parent="1" source="Ed5fq_KU7zEKJbalu_ab-8" target="Ed5fq_KU7zEKJbalu_ab-9">
          <mxGeometry relative="1" as="geometry" />
        </mxCell>
        <mxCell id="Ed5fq_KU7zEKJbalu_ab-8" value="&lt;span style=&quot;font-size: 14px;&quot;&gt;Iterative Global Value Numbering&lt;/span&gt;" style="rounded=1;whiteSpace=wrap;html=1;perimeterSpacing=0;glass=0;shadow=0;" parent="1" vertex="1">
          <mxGeometry x="141" y="520" width="220" height="30" as="geometry" />
        </mxCell>
        <mxCell id="OGlMFdHKQF9ZKyUTeiHO-3" style="edgeStyle=orthogonalEdgeStyle;rounded=0;orthogonalLoop=1;jettySize=auto;html=1;exitX=0.5;exitY=1;exitDx=0;exitDy=0;entryX=0;entryY=0.5;entryDx=0;entryDy=0;" edge="1" parent="1" source="Ed5fq_KU7zEKJbalu_ab-9" target="Ed5fq_KU7zEKJbalu_ab-29">
          <mxGeometry relative="1" as="geometry">
            <Array as="points">
              <mxPoint x="251" y="630" />
              <mxPoint x="420" y="630" />
              <mxPoint x="420" y="355" />
            </Array>
          </mxGeometry>
        </mxCell>
        <mxCell id="Ed5fq_KU7zEKJbalu_ab-9" value="&lt;font style=&quot;font-size: 14px;&quot;&gt;Ideal Loop&lt;/font&gt;" style="rounded=1;whiteSpace=wrap;html=1;perimeterSpacing=0;glass=0;shadow=0;" parent="1" vertex="1">
          <mxGeometry x="206" y="574" width="90" height="30" as="geometry" />
        </mxCell>
        <mxCell id="Ed5fq_KU7zEKJbalu_ab-14" style="edgeStyle=orthogonalEdgeStyle;rounded=0;orthogonalLoop=1;jettySize=auto;html=1;exitX=0.14;exitY=0.994;exitDx=0;exitDy=0;exitPerimeter=0;entryX=0.137;entryY=-0.083;entryDx=0;entryDy=0;entryPerimeter=0;strokeColor=light-dark(#000000,#EDEDED);" parent="1" source="Ed5fq_KU7zEKJbalu_ab-5" target="Ed5fq_KU7zEKJbalu_ab-7" edge="1">
          <mxGeometry relative="1" as="geometry">
            <mxPoint x="173" y="440" as="targetPoint" />
          </mxGeometry>
        </mxCell>
        <mxCell id="Ed5fq_KU7zEKJbalu_ab-16" value="" style="edgeStyle=segmentEdgeStyle;endArrow=none;html=1;curved=0;rounded=0;startFill=0;strokeColor=light-dark(#000000,#EDEDED);" parent="1" edge="1">
          <mxGeometry width="50" height="50" relative="1" as="geometry">
            <mxPoint x="251" y="440" as="sourcePoint" />
            <mxPoint x="251" y="380" as="targetPoint" />
            <Array as="points">
              <mxPoint x="301" y="440" />
            </Array>
          </mxGeometry>
        </mxCell>
        <mxCell id="Ed5fq_KU7zEKJbalu_ab-23" style="edgeStyle=orthogonalEdgeStyle;rounded=0;orthogonalLoop=1;jettySize=auto;html=1;exitX=0.5;exitY=1;exitDx=0;exitDy=0;entryX=0.5;entryY=0;entryDx=0;entryDy=0;strokeColor=light-dark(#000000,#EDEDED);" parent="1" source="Ed5fq_KU7zEKJbalu_ab-20" target="Ed5fq_KU7zEKJbalu_ab-21" edge="1">
          <mxGeometry relative="1" as="geometry" />
        </mxCell>
        <mxCell id="Ed5fq_KU7zEKJbalu_ab-20" value="&lt;font style=&quot;font-size: 14px;&quot;&gt;Constant Folding&lt;/font&gt;" style="rounded=1;whiteSpace=wrap;html=1;perimeterSpacing=0;glass=0;shadow=0;" parent="1" vertex="1">
          <mxGeometry x="501" y="100" width="170" height="30" as="geometry" />
        </mxCell>
        <mxCell id="Ed5fq_KU7zEKJbalu_ab-24" style="edgeStyle=orthogonalEdgeStyle;rounded=0;orthogonalLoop=1;jettySize=auto;html=1;exitX=0.5;exitY=1;exitDx=0;exitDy=0;entryX=0.5;entryY=0;entryDx=0;entryDy=0;strokeColor=light-dark(#000000,#EDEDED);" parent="1" source="Ed5fq_KU7zEKJbalu_ab-21" target="Ed5fq_KU7zEKJbalu_ab-22" edge="1">
          <mxGeometry relative="1" as="geometry" />
        </mxCell>
        <mxCell id="Ed5fq_KU7zEKJbalu_ab-21" value="&lt;font style=&quot;font-size: 14px;&quot;&gt;Identity&lt;/font&gt;" style="rounded=1;whiteSpace=wrap;html=1;perimeterSpacing=0;glass=0;shadow=0;" parent="1" vertex="1">
          <mxGeometry x="501" y="150" width="170" height="30" as="geometry" />
        </mxCell>
        <mxCell id="Ed5fq_KU7zEKJbalu_ab-26" style="rounded=0;orthogonalLoop=1;jettySize=auto;html=1;exitX=0;exitY=0.5;exitDx=0;exitDy=0;entryX=1;entryY=0.5;entryDx=0;entryDy=0;strokeColor=light-dark(#000000,#EDEDED);" parent="1" source="Ed5fq_KU7zEKJbalu_ab-22" target="Ed5fq_KU7zEKJbalu_ab-1" edge="1">
          <mxGeometry relative="1" as="geometry" />
        </mxCell>
        <mxCell id="Ed5fq_KU7zEKJbalu_ab-22" value="&lt;font style=&quot;font-size: 14px;&quot;&gt;Global Value Numbering&lt;/font&gt;" style="rounded=1;whiteSpace=wrap;html=1;perimeterSpacing=0;glass=0;shadow=0;" parent="1" vertex="1">
          <mxGeometry x="501" y="200" width="170" height="30" as="geometry" />
        </mxCell>
        <mxCell id="Ed5fq_KU7zEKJbalu_ab-34" style="edgeStyle=orthogonalEdgeStyle;rounded=0;orthogonalLoop=1;jettySize=auto;html=1;exitX=0.5;exitY=1;exitDx=0;exitDy=0;entryX=0.5;entryY=0;entryDx=0;entryDy=0;strokeColor=light-dark(#000000,#EDEDED);" parent="1" source="Ed5fq_KU7zEKJbalu_ab-29" target="Ed5fq_KU7zEKJbalu_ab-30" edge="1">
          <mxGeometry relative="1" as="geometry" />
        </mxCell>
        <mxCell id="Ed5fq_KU7zEKJbalu_ab-29" value="&lt;font style=&quot;font-size: 14px;&quot;&gt;Generate MachNode Graph&lt;/font&gt;" style="rounded=1;whiteSpace=wrap;html=1;perimeterSpacing=0;glass=0;shadow=0;fillColor=#d5e8d4;strokeColor=#82b366;" parent="1" vertex="1">
          <mxGeometry x="476" y="340" width="220" height="30" as="geometry" />
        </mxCell>
        <mxCell id="Ed5fq_KU7zEKJbalu_ab-35" style="edgeStyle=orthogonalEdgeStyle;rounded=0;orthogonalLoop=1;jettySize=auto;html=1;exitX=0.5;exitY=1;exitDx=0;exitDy=0;entryX=0.5;entryY=0;entryDx=0;entryDy=0;strokeColor=light-dark(#000000,#EDEDED);" parent="1" source="Ed5fq_KU7zEKJbalu_ab-30" target="Ed5fq_KU7zEKJbalu_ab-31" edge="1">
          <mxGeometry relative="1" as="geometry" />
        </mxCell>
        <mxCell id="Ed5fq_KU7zEKJbalu_ab-30" value="&lt;font style=&quot;font-size: 14px;&quot;&gt;Build Control Flow Graph&lt;/font&gt;" style="rounded=1;whiteSpace=wrap;html=1;perimeterSpacing=0;glass=0;shadow=0;" parent="1" vertex="1">
          <mxGeometry x="476" y="390" width="220" height="30" as="geometry" />
        </mxCell>
        <mxCell id="Ed5fq_KU7zEKJbalu_ab-36" style="edgeStyle=orthogonalEdgeStyle;rounded=0;orthogonalLoop=1;jettySize=auto;html=1;exitX=0.5;exitY=1;exitDx=0;exitDy=0;entryX=0.5;entryY=0;entryDx=0;entryDy=0;strokeColor=light-dark(#000000,#EDEDED);" parent="1" source="Ed5fq_KU7zEKJbalu_ab-31" target="Ed5fq_KU7zEKJbalu_ab-32" edge="1">
          <mxGeometry relative="1" as="geometry" />
        </mxCell>
        <mxCell id="Ed5fq_KU7zEKJbalu_ab-31" value="&lt;font style=&quot;font-size: 14px;&quot;&gt;Register Allocation&lt;/font&gt;" style="rounded=1;whiteSpace=wrap;html=1;perimeterSpacing=0;glass=0;shadow=0;" parent="1" vertex="1">
          <mxGeometry x="476" y="440" width="220" height="30" as="geometry" />
        </mxCell>
        <mxCell id="Ed5fq_KU7zEKJbalu_ab-44" value="" style="edgeStyle=orthogonalEdgeStyle;rounded=0;orthogonalLoop=1;jettySize=auto;html=1;" parent="1" source="Ed5fq_KU7zEKJbalu_ab-32" target="Ed5fq_KU7zEKJbalu_ab-33" edge="1">
          <mxGeometry relative="1" as="geometry" />
        </mxCell>
        <mxCell id="Ed5fq_KU7zEKJbalu_ab-32" value="&lt;font style=&quot;font-size: 14px;&quot;&gt;Peephole Optimizations&lt;/font&gt;" style="rounded=1;whiteSpace=wrap;html=1;perimeterSpacing=0;glass=0;shadow=0;" parent="1" vertex="1">
          <mxGeometry x="476" y="490" width="220" height="30" as="geometry" />
        </mxCell>
        <mxCell id="Ed5fq_KU7zEKJbalu_ab-33" value="&lt;font style=&quot;font-size: 14px;&quot;&gt;Output Machine Code&lt;/font&gt;" style="rounded=1;whiteSpace=wrap;html=1;perimeterSpacing=0;glass=0;shadow=0;fillColor=#fff2cc;strokeColor=#d6b656;" parent="1" vertex="1">
          <mxGeometry x="476" y="544" width="220" height="30" as="geometry" />
        </mxCell>
        <mxCell id="Ed5fq_KU7zEKJbalu_ab-43" value="" style="edgeStyle=segmentEdgeStyle;endArrow=none;html=1;curved=0;rounded=0;endSize=8;startSize=8;startFill=0;strokeColor=light-dark(#000000,#EDEDED);" parent="1" edge="1">
          <mxGeometry width="50" height="50" relative="1" as="geometry">
            <mxPoint x="251" y="619" as="sourcePoint" />
            <mxPoint x="251" y="559" as="targetPoint" />
            <Array as="points">
              <mxPoint x="311" y="619" />
              <mxPoint x="311" y="559" />
            </Array>
          </mxGeometry>
        </mxCell>
        <mxCell id="Ed5fq_KU7zEKJbalu_ab-46" value="&lt;font style=&quot;font-size: 16px;&quot;&gt;&lt;b&gt;Buliding Ideal Graph&lt;/b&gt;&lt;/font&gt;" style="text;html=1;align=center;verticalAlign=middle;resizable=0;points=[];autosize=1;strokeColor=none;fillColor=none;" parent="1" vertex="1">
          <mxGeometry x="131" y="40" width="180" height="30" as="geometry" />
        </mxCell>
        <mxCell id="Ed5fq_KU7zEKJbalu_ab-48" value="&lt;font style=&quot;font-size: 16px;&quot;&gt;&lt;b&gt;Optimizations&lt;/b&gt;&lt;/font&gt;" style="text;html=1;align=center;verticalAlign=middle;resizable=0;points=[];autosize=1;strokeColor=none;fillColor=none;" parent="1" vertex="1">
          <mxGeometry x="121" y="280" width="130" height="30" as="geometry" />
        </mxCell>
        <mxCell id="Ed5fq_KU7zEKJbalu_ab-50" value="&lt;font style=&quot;font-size: 16px;&quot;&gt;&lt;b&gt;Once per Bytecode&lt;/b&gt;&lt;/font&gt;" style="text;html=1;align=center;verticalAlign=middle;resizable=0;points=[];autosize=1;strokeColor=none;fillColor=none;" parent="1" vertex="1">
          <mxGeometry x="471" y="40" width="170" height="30" as="geometry" />
        </mxCell>
        <mxCell id="Ed5fq_KU7zEKJbalu_ab-52" value="&lt;font style=&quot;font-size: 16px;&quot;&gt;&lt;b&gt;Code Generation&lt;/b&gt;&lt;/font&gt;" style="text;html=1;align=center;verticalAlign=middle;resizable=0;points=[];autosize=1;strokeColor=none;fillColor=none;" parent="1" vertex="1">
          <mxGeometry x="471" y="270" width="150" height="30" as="geometry" />
        </mxCell>
      </root>
    </mxGraphModel>
  </diagram>
</mxfile>
